PathFileType	3	(X/Y/Z)	C:\Users\koon_\Desktop\
DataRate	CameraRate	NumFrames	NumMarkers	Units	OrigDataRate	OrigDataStartFrame	OrigNumFrames
100.0	100.0	5	27	mm	100.0	648	5176	
Frame#	Time	get:LFHD			get:RFHD			get:LBHD			get:RBHD			get:C7			get:T10			get:CLAV			get:STRN			get:RBAK			get:LSHO			get:LUPA			get:LELB			get:LFRA			get:LWRA			get:LWRB			get:LFIN			get:RSHO			get:RUPA			get:RELB			get:RFRA			get:RWRA			get:RWRB			get:RFIN			get:LASI			get:RASI			get:LPSI			get:RPSI			
		X1	Y1	Z1	X2	Y2	Z2	X3	Y3	Z3	X4	Y4	Z4	X5	Y5	Z5	X6	Y6	Z6	X7	Y7	Z7	X8	Y8	Z8	X9	Y9	Z9	X10	Y10	Z10	X11	Y11	Z11	X12	Y12	Z12	X13	Y13	Z13	X14	Y14	Z14	X15	Y15	Z15	X16	Y16	Z16	X17	Y17	Z17	X18	Y18	Z18	X19	Y19	Z19	X20	Y20	Z20	X21	Y21	Z21	X22	Y22	Z22	X23	Y23	Z23	X24	Y24	Z24	X25	Y25	Z25	X26	Y26	Z26	X27	Y27	Z27	
648	6.47	91.194679	1578.3503	-53.07745	-65.35849	1563.3506	-52.995403	85.781769	1574.7994	-178.52385	-40.165581	1574.7208	-197.70178	-6.5743246	1372.1025	-221.27467	42.07238	1130.5087	-242.95943	14.242982	1318.6653	-37.148838	52.214523	1134.8109	17.976315	-74.63858	1299.8035	-244.5265	83.733688	1420.1718	-162.05196	163.00456	1491.9895	-173.8985	300.9144	1592.7991	-160.80261	286.72736	1711.3494	-119.60839	314.51053	1800.3385	-85.931755	372.02115	1785.1667	-121.43162	372.55392	1880.7949	-119.38892	-145.20323	1349.1219	-128.74202	-193.37541	1125.3503	-107.38945	-202.9836	1024.7357	-165.73387	-186.71851	954.6886	-89.259964	-165.48007	801.67969	-79.244835	-212.78015	805.71466	-136.93336	-210.83688	734.93909	-77.62117	169.21791	937.58441	-52.247601	-106.06728	926.0199	-55.945309	86.827385	965.29932	-249.92276	-20.571547	956.78284	-253.3662
649	6.48	91.385338	1578.2452	-52.428185	-65.091347	1563.3992	-53.126999	86.041931	1574.7897	-178.58398	-39.937244	1574.8372	-197.77072	-6.6303949	1372.1016	-221.29784	42.091087	1130.5685	-242.94348	14.320367	1318.6783	-37.1199	52.315098	1134.8499	17.899632	-74.688278	1299.765	-244.53674	83.44384	1420.2321	-162.11491	162.30667	1492.1896	-173.85991	299.60339	1593.9269	-160.72267	284.31067	1712.2129	-119.18162	311.25244	1801.3914	-85.285339	368.78363	1786.7384	-120.75993	368.78253	1882.2256	-118.71319	-145.17717	1349.1786	-128.79361	-193.3298	1125.4087	-107.09288	-202.9167	1024.7351	-165.52754	-186.59222	954.69537	-89.044304	-165.18622	801.71515	-78.931656	-212.53578	805.76086	-136.77444	-210.62175	734.98425	-77.31485	169.29626	937.61951	-52.333317	-105.9657	925.98285	-55.911789	86.832253	965.35095	-250.01407	-20.621376	956.81543	-253.35759
650	6.49	91.718239	1578.2045	-53.178532	-64.841461	1563.5131	-53.16758	86.32209	1574.8044	-178.62828	-39.647881	1574.9886	-197.7916	-6.6709962	1372.2424	-221.53441	42.092712	1130.5824	-242.93971	14.377625	1318.7299	-37.128269	52.43856	1134.8865	17.910471	-74.765312	1299.7266	-244.50897	83.190575	1420.2903	-162.25763	161.63454	1492.3676	-173.88354	298.1825	1594.7847	-160.49777	281.96536	1712.9763	-118.76768	308.1875	1802.3141	-84.800545	365.92715	1788.2401	-120.3355	365.07581	1883.665	-118.0267	-145.14041	1349.1863	-128.67442	-193.30205	1125.4979	-106.68675	-202.84091	1024.7161	-165.32237	-186.46886	954.73145	-88.869537	-164.98662	801.77191	-78.590118	-212.3858	805.75696	-136.46028	-210.43387	735.02557	-77.025902	169.37076	937.65393	-52.427395	-105.88448	925.9527	-55.868668	86.824364	965.37268	-250.02232	-20.625353	956.81866	-253.29774
651	6.5	91.944595	1578.1431	-53.259335	-64.495384	1563.5455	-53.752636	86.59993	1574.8038	-178.68124	-39.426651	1575.1591	-197.9088	-6.6969061	1372.2462	-221.49689	42.089638	1130.6548	-242.94446	14.406003	1318.7587	-37.12431	52.508633	1134.9348	17.906826	-74.793777	1299.6799	-244.42383	82.958946	1420.3219	-162.36082	161.00008	1492.4735	-173.93161	296.54883	1595.521	-159.91129	279.80389	1713.6093	-118.37228	305.4837	1803.2496	-85.238281	363.16827	1789.536	-119.85671	361.54736	1885.0128	-117.41155	-145.14453	1349.2113	-128.65099	-193.22844	1125.5179	-106.60442	-202.71585	1024.7689	-165.25999	-186.31525	954.76678	-88.605774	-164.84239	801.80054	-78.327217	-212.31136	805.74988	-136.13754	-210.30107	735.07397	-76.746368	169.44243	937.67792	-52.501247	-105.79579	925.97113	-55.787838	86.800751	965.41254	-250.08321	-20.658331	956.84302	-253.32823
652	6.51	92.228729	1578.0736	-53.276745	-64.361305	1563.7468	-53.436821	86.8675	1574.7729	-178.74062	-39.106438	1575.3103	-198.03441	-6.7001324	1372.2786	-221.46638	42.085548	1130.7217	-242.90729	14.439023	1318.8176	-37.141682	52.576523	1134.9735	17.911831	-74.833412	1299.725	-244.50574	82.78437	1420.3612	-162.46556	160.45027	1492.5846	-173.94653	295.52682	1596.3718	-159.88127	277.69839	1714.2261	-118.01078	302.63535	1803.9258	-83.785393	360.59012	1790.7222	-119.39702	358.27698	1886.2245	-116.76503	-145.10143	1349.2521	-128.65488	-193.19186	1125.5173	-106.49696	-202.61905	1024.7227	-164.98599	-186.21347	954.75891	-88.492317	-164.70512	801.82263	-78.483925	-212.27391	805.72504	-135.83539	-210.14088	735.09149	-76.456245	169.46432	937.72748	-52.52816	-105.7345	925.96436	-55.805321	86.792778	965.43451	-250.09131	-20.657139	956.88739	-253.34772
